<?xml version="1.0" standalone="no"?>
<!DOCTYPE svg PUBLIC "-//W3C//DTD SVG 20010904//EN"
 "http://www.w3.org/TR/2001/REC-SVG-20010904/DTD/svg10.dtd">
<svg version="1.0" xmlns="http://www.w3.org/2000/svg"
 width="1024.000000pt" height="1024.000000pt" viewBox="0 0 1024.000000 1024.000000"
 preserveAspectRatio="xMidYMid meet">

<g transform="translate(0.000000,1024.000000) scale(0.100000,-0.100000)"
fill="#000000" stroke="none">
<path d="M4915 8764 c-336 -34 -568 -81 -840 -171 -369 -121 -773 -322 -1074
-535 -293 -207 -377 -275 -448 -365 -217 -275 -725 -989 -774 -1088 -39 -80
-49 -142 -49 -299 0 -101 -5 -147 -20 -201 -31 -106 -77 -344 -96 -490 -22
-162 -24 -595 -5 -765 46 -412 164 -813 343 -1166 l41 -81 -35 -59 c-43 -71
-64 -131 -79 -224 -26 -166 50 -358 177 -450 l43 -31 3 -427 c3 -418 4 -428
26 -484 22 -54 79 -139 112 -166 51 -42 109 -77 157 -93 53 -19 111 -20 2736
-20 2646 0 2683 1 2739 20 144 50 255 177 287 329 7 34 11 194 11 443 l0 391
68 66 c51 49 79 88 108 146 36 75 39 86 42 187 5 127 -9 186 -71 301 l-42 77
57 108 c156 300 271 676 324 1068 26 186 26 670 1 840 -24 157 -62 339 -94
445 -22 73 -27 111 -32 270 -6 180 -7 187 -37 251 -74 155 -712 1050 -836
1171 -64 62 -340 268 -513 383 -497 328 -1022 526 -1597 601 -117 15 -543 27
-633 18z m476 -274 c264 -26 565 -92 799 -175 254 -90 546 -235 723 -359 l58
-41 156 -5 c148 -5 156 -6 174 -29 24 -30 24 -63 0 -85 -19 -17 -134 -18
-2166 -18 -2029 0 -2147 1 -2166 18 -28 25 -24 68 7 93 24 19 40 21 169 21
l142 0 59 38 c234 150 541 295 835 392 190 63 494 127 709 149 122 12 380 13
501 1z m-2150 -980 c224 0 259 -2 259 -15 0 -13 64 -15 514 -15 283 0 521 -3
529 -6 10 -3 18 2 22 15 6 21 9 21 560 21 478 0 555 -2 562 -15 7 -12 84 -15
541 -17 501 -3 532 -2 532 15 0 16 20 17 279 17 239 0 280 -2 285 -15 4 -12
27 -15 114 -15 l108 0 65 -92 c37 -51 112 -158 168 -236 103 -145 121 -174
105 -171 -5 1 -86 1 -181 0 l-172 -1 5 -24 c2 -14 13 -46 24 -71 30 -70 120
-314 120 -325 0 -7 -111 -9 -321 -8 -274 3 -323 5 -330 18 -7 14 -34 107 -80
278 -29 109 -50 155 -62 143 -8 -8 -192 -11 -583 -11 l-572 0 5 -42 c15 -165
30 -374 26 -380 -2 -5 -287 -8 -634 -8 -533 0 -631 2 -635 14 -3 8 2 89 10
181 9 91 16 183 16 203 l0 37 -582 -2 -583 -3 -14 -47 c-8 -27 -35 -122 -60
-213 l-46 -165 -325 0 c-319 0 -325 0 -322 20 2 11 37 106 78 211 41 104 74
192 74 195 0 2 -81 3 -180 2 -99 -1 -180 2 -180 6 0 4 35 55 77 112 42 57 104
145 138 194 34 50 77 112 96 138 l34 48 104 -2 c99 -1 106 0 115 20 5 13 15
20 24 16 7 -3 130 -5 273 -5z m-93 -1279 c3 -247 -5 -290 -65 -360 -98 -115
-298 -125 -401 -20 -74 74 -77 88 -80 348 -3 185 -1 236 10 242 7 5 130 8 273
6 l260 -2 3 -214z m1910 213 l23 -7 -3 -236 c-3 -269 -8 -285 -90 -356 -60
-51 -101 -66 -186 -66 -108 -1 -182 43 -240 141 -27 45 -27 47 -30 274 -2 125
-1 234 2 242 4 11 50 14 253 14 136 0 258 -3 271 -6z m636 -1 l38 -6 -4 -231
c-4 -227 -4 -232 -30 -282 -31 -59 -74 -99 -137 -127 -67 -30 -194 -21 -253
17 -53 35 -84 69 -108 121 -16 34 -19 68 -20 240 -1 110 -1 217 -1 238 l1 37
238 0 c130 0 254 -3 276 -7z m1920 1 l47 -7 -3 -226 c-4 -200 -7 -231 -25
-271 -43 -95 -112 -148 -213 -161 -86 -11 -160 13 -226 73 -78 72 -84 99 -84
375 l0 223 229 0 c125 0 249 -3 275 -6z m-5114 -54 l0 -50 -250 0 -250 0 0 50
0 50 250 0 250 0 0 -50z m1290 0 l0 -50 -270 0 -270 0 0 50 0 50 270 0 270 0
0 -50z m640 0 l0 -50 -270 0 -270 0 0 50 0 50 270 0 270 0 0 -50z m1940 0 l0
-50 -275 0 -275 0 0 34 c0 70 -16 66 281 66 l269 0 0 -50z m640 0 l0 -50 -270
0 -270 0 0 50 0 50 270 0 270 0 0 -50z m1250 0 l0 -50 -255 0 -255 0 0 50 0
50 255 0 255 0 0 -50z m-6173 -821 c48 -19 76 -23 171 -23 l112 0 0 -418 0
-418 -33 -42 c-42 -56 -82 -147 -108 -245 -16 -59 -21 -110 -22 -208 -1 -145
13 -212 65 -328 l32 -68 -30 -24 -29 -23 -29 46 c-83 133 -218 480 -275 708
-78 311 -100 738 -56 1069 8 61 15 112 15 114 0 2 29 -24 64 -57 42 -39 85
-68 123 -83z m6292 64 c51 -337 37 -713 -39 -1068 -43 -199 -144 -490 -203
-588 l-23 -38 -27 40 -27 40 35 104 c29 86 35 119 35 188 0 45 5 109 12 140
15 72 2 119 -47 176 -39 46 -124 93 -167 93 l-28 0 0 413 0 412 108 0 c95 1
115 4 176 29 48 21 83 44 120 82 28 29 54 53 57 53 4 1 12 -34 18 -76z m-3114
-105 c143 -31 280 -131 380 -277 72 -106 134 -278 107 -295 -6 -4 -16 3 -22
14 -6 12 -7 20 -1 20 5 0 12 -8 14 -17 4 -14 5 -12 6 5 0 12 -3 22 -9 22 -5 0
-10 8 -10 17 0 9 -3 13 -7 10 -3 -4 -12 1 -20 11 -13 16 -14 15 -8 -5 11 -40
-3 -25 -35 40 -86 169 -229 295 -387 338 -197 55 -392 -2 -550 -159 -74 -73
-96 -107 -139 -212 -26 -64 -36 -77 -45 -53 -6 14 -8 12 -9 -12 -2 -23 -4 -25
-8 -10 -4 14 -10 1 -19 -40 -30 -127 -33 -135 -28 -70 10 134 65 284 156 421
139 209 384 306 634 252z m-1544 -78 c24 -16 55 -39 69 -50 24 -20 28 -20 63
-5 53 22 174 20 240 -5 67 -25 144 -97 177 -165 45 -92 36 -222 -18 -272 -86
-80 -203 -96 -310 -42 -40 20 -68 42 -82 64 l-22 35 23 32 c34 49 84 89 153
124 l61 32 -48 7 c-108 16 -219 -45 -307 -168 -37 -51 -40 -52 -112 -16 -25
13 -38 27 -43 47 -6 31 15 138 39 197 12 28 12 35 2 35 -19 0 -46 -27 -93 -90
-43 -58 -63 -106 -63 -149 0 -43 -11 -52 -52 -41 -24 7 -44 23 -64 52 -25 36
-29 50 -28 107 1 82 32 148 99 210 102 94 229 119 316 61z m2703 -116 c32 -67
66 -202 66 -261 0 -58 -25 -150 -49 -176 -11 -12 -42 -48 -70 -79 -28 -32 -52
-54 -55 -49 -3 4 -13 47 -22 94 -16 81 -16 93 -1 186 22 131 22 130 -18 91
l-35 -34 -37 18 c-33 15 -44 16 -100 5 -34 -7 -65 -10 -69 -7 -14 15 73 122
143 175 36 28 179 93 204 93 10 0 27 -22 43 -56z m1215 19 c-2 -24 -2 -25 -6
-5 -5 25 -22 28 -43 10 -12 -11 -12 -10 -1 5 7 9 22 17 32 17 14 0 19 -7 18
-27z m-4984 -443 c7 0 16 -4 19 -9 3 -4 -6 -6 -19 -3 l-25 4 2 232 3 231 2
-227 c3 -189 6 -228 18 -228z m105 336 c0 -39 3 -108 7 -153 6 -79 5 -83 -15
-83 -46 0 -52 20 -52 191 l0 160 30 -23 c28 -21 30 -26 30 -92z m4802 -53 c-2
-82 -6 -151 -10 -155 -4 -3 -16 -8 -27 -10 -19 -3 -20 3 -23 143 -2 143 -2
146 20 157 13 6 28 11 33 11 6 1 9 -52 7 -146z m-809 44 c11 -20 20 -58 20
-84 l2 -46 -65 -18 c-36 -11 -70 -19 -76 -19 -6 0 -14 26 -18 60 -4 33 -12 74
-18 90 -12 37 -9 41 39 51 73 14 96 8 116 -34z m-1522 -110 c31 -26 69 -85 69
-108 0 -26 -48 -11 -64 20 -8 14 -26 37 -40 50 -52 49 -19 84 35 38z m-210 -7
c20 -6 44 -19 54 -30 21 -23 17 -24 -21 -10 -23 9 -25 8 -15 -3 9 -12 4 -16
-28 -21 -46 -7 -65 -26 -26 -26 15 0 33 -7 41 -15 8 -8 21 -12 29 -8 11 4 13
1 9 -11 -3 -9 -12 -16 -20 -16 -8 0 -14 -4 -14 -9 0 -4 -21 -16 -46 -26 -37
-14 -66 -17 -143 -12 -99 5 -131 12 -131 29 0 21 105 119 153 143 54 27 100
31 158 15z m-1864 -46 c29 -22 80 -111 69 -121 -2 -2 -34 3 -72 12 -48 11 -69
12 -74 4 -17 -26 -27 68 -14 119 6 19 11 22 33 17 14 -4 40 -18 58 -31z m3003
-131 c0 -32 5 -78 11 -103 29 -120 10 -330 -41 -460 -47 -119 -162 -251 -266
-307 l-60 -32 2 26 c1 28 26 47 54 40 13 -3 18 1 18 19 0 13 -2 24 -4 24 -2 0
-27 -15 -56 -33 -60 -38 -165 -82 -235 -98 -50 -11 -313 -32 -418 -32 -79 -1
-154 22 -220 67 -38 27 -60 36 -74 31 -12 -3 -21 -12 -21 -18 -1 -24 -30 28
-30 53 0 27 30 62 82 95 27 17 29 17 78 -15 68 -44 129 -60 224 -60 135 0 239
37 391 140 85 58 159 134 220 229 58 89 84 148 149 331 57 161 52 156 154 159
l42 1 0 -57z m819 11 c38 -8 76 -21 86 -27 15 -12 15 -15 -4 -37 -11 -14 -32
-56 -47 -95 -23 -61 -34 -77 -92 -125 -67 -56 -90 -71 -78 -51 4 6 2 11 -3 11
-6 0 -11 -4 -11 -9 0 -5 -7 -11 -15 -15 -12 -4 -13 -2 -5 13 8 16 5 20 -16 25
-13 4 -22 11 -19 16 10 16 -7 12 -27 -7 -10 -9 -20 -14 -23 -12 -2 3 22 35 55
71 33 36 57 68 53 71 -3 4 -26 -5 -52 -18 -25 -14 -52 -25 -60 -25 -8 0 -30
-12 -49 -27 -33 -25 -36 -25 -48 -8 -12 15 -11 20 4 32 9 7 -9 2 -40 -11 l-58
-25 0 22 c0 36 55 139 93 176 71 67 210 89 356 55z m295 -76 c-30 -60 -98
-168 -106 -168 -5 0 -8 8 -9 18 0 10 -3 12 -6 5 -9 -23 -23 -13 -23 16 0 48
60 151 110 189 l45 35 3 -31 c2 -17 -4 -46 -14 -64z m-4505 -16 c1 -7 -3 -11
-7 -8 -4 2 -8 19 -9 38 -1 30 -1 31 7 8 4 -14 8 -31 9 -38z m2676 -6 c78 -36
117 -66 164 -129 39 -53 59 -93 41 -82 -6 4 -10 -8 -10 -27 -1 -145 -210 -298
-408 -298 -119 0 -264 67 -374 173 l-56 55 9 42 c14 60 51 120 112 177 96 91
196 124 357 120 89 -3 114 -7 165 -31z m2298 -64 c17 -19 47 -84 47 -102 0
-15 -42 -2 -58 18 -7 9 -16 32 -22 51 -14 51 2 67 33 33z m-4196 -11 c83 -16
163 -60 229 -126 77 -77 105 -133 98 -198 -5 -54 -26 -112 -51 -139 -15 -17
-17 -16 -35 7 -27 34 -45 31 -69 -10 -12 -19 -25 -35 -30 -35 -18 0 -8 -27 14
-39 l22 -11 -24 6 c-16 4 -21 3 -17 -5 5 -7 -4 -9 -26 -6 -23 4 -27 3 -14 -3
19 -8 19 -9 0 -16 -10 -4 -20 -3 -22 2 -1 5 -26 8 -55 6 l-52 -3 44 9 c24 5
47 12 50 16 3 4 -5 4 -19 1 -14 -4 -52 -9 -83 -13 -32 -4 -60 -10 -62 -14 -16
-26 -144 48 -232 133 -62 60 -74 69 -87 57 -11 -8 -16 -9 -16 -1 0 6 -6 10
-12 9 -7 -2 -12 3 -10 10 3 18 -8 15 -29 -9 -44 -51 -52 22 -13 124 31 81 100
160 173 201 89 48 221 67 328 47z m-853 -69 c10 -9 40 -63 67 -119 100 -215
166 -292 334 -394 246 -148 342 -254 361 -396 6 -48 5 -51 -19 -57 -14 -3 -31
-8 -39 -11 -7 -3 -38 18 -68 46 -86 81 -254 177 -276 158 -7 -6 -22 -6 -40 1
-15 6 -33 9 -41 6 -7 -3 -13 0 -13 6 0 6 -6 5 -17 -3 -15 -13 -15 -12 -4 9 11
20 9 27 -15 55 -34 41 -111 107 -98 85 14 -24 81 -95 101 -107 12 -6 15 -13 8
-20 -10 -9 -80 65 -178 187 -45 57 -91 165 -120 280 l-21 87 -14 -35 c-34 -84
-33 -217 3 -324 15 -44 15 -47 -5 -74 -17 -22 -21 -44 -22 -100 0 -40 -2 -72
-3 -72 -2 0 -15 19 -29 43 -47 77 -53 82 -71 63 -9 -9 -12 -16 -6 -16 6 0 16
-10 22 -22 11 -20 10 -22 -3 -10 -13 10 -17 10 -21 0 -3 -8 -6 -6 -6 5 -1 17
-2 17 -17 2 -14 -13 -15 -21 -5 -42 6 -14 9 -28 7 -31 -3 -3 -9 4 -12 14 -4
10 -14 35 -22 54 -28 67 -42 136 -48 235 -7 121 9 200 65 319 80 168 192 243
265 178z m4883 -4 c-3 -7 -5 -2 -5 12 0 14 2 19 5 13 2 -7 2 -19 0 -25z
m-3287 -23 c27 -24 31 -54 10 -65 -10 -5 -21 -21 -24 -35 -6 -22 -12 -25 -49
-25 -32 1 -49 7 -74 30 -39 35 -41 59 -10 88 45 43 105 45 147 7z m3235 25
c-8 -13 8 -13 21 0 6 6 10 3 11 -9 2 -18 -23 -49 -31 -40 -10 13 -15 59 -6 59
6 0 8 -4 5 -10z m-171 -84 c35 -15 76 -59 76 -84 0 -13 -3 -13 -18 1 -10 10
-23 17 -29 17 -6 0 -24 7 -39 15 -54 28 -82 20 -135 -37 -27 -29 -50 -48 -51
-43 0 6 -1 17 -2 25 -1 8 -14 21 -29 28 -24 12 -31 11 -60 -7 -18 -11 -51 -39
-72 -63 l-40 -43 -3 28 c-4 36 30 91 76 122 30 20 49 25 102 25 37 1 76 7 90
15 32 18 91 19 134 1z m592 -57 c36 -22 54 -47 54 -73 0 -13 -4 -14 -25 -4
-14 6 -25 14 -25 18 0 14 -88 32 -120 25 -27 -6 -31 -11 -27 -31 3 -18 0 -24
-14 -24 -9 0 -24 -3 -33 -6 -11 -4 -16 -1 -16 10 0 19 -45 39 -70 31 -36 -11
-63 -55 -79 -127 l-17 -73 -17 34 c-36 72 -12 159 55 202 27 16 45 19 94 16
40 -3 69 0 85 9 38 21 116 17 155 -7z m-1207 -83 c44 -33 81 -85 81 -114 0
-16 -4 -21 -12 -15 -17 10 -32 11 -38 1 -6 -7 -83 103 -96 136 -9 25 27 20 65
-8z m-150 -54 c20 -64 13 -72 -56 -64 -32 4 -77 6 -100 5 -24 0 -43 3 -43 8 0
23 139 102 170 96 8 -1 21 -21 29 -45z m-2296 -28 c78 -72 -32 -180 -116 -114
-14 11 -30 20 -35 20 -17 0 -22 28 -11 60 22 61 112 80 162 34z m311 1 c26
-24 39 -84 14 -69 -8 5 -9 0 -5 -16 8 -31 -8 -50 -42 -50 -47 0 -69 11 -76 37
-5 20 -9 23 -18 14 -19 -19 -27 -12 -27 24 0 77 95 115 154 60z m-1514 -47 c0
-6 -6 -5 -15 2 -8 7 -15 14 -15 16 0 2 7 1 15 -2 8 -4 15 -11 15 -16z m700
-73 c0 -2 -10 -9 -22 -15 -22 -11 -22 -10 -4 4 21 17 26 19 26 11z m3236 -50
c24 -14 48 -34 54 -45 13 -24 12 -24 -35 -5 -43 19 -136 17 -143 -3 -2 -6 7
-16 20 -21 25 -10 20 -13 -37 -26 -25 -5 -33 -2 -55 26 -26 30 -28 31 -62 20
-20 -7 -57 -30 -81 -51 -58 -51 -72 -52 -52 -3 33 79 90 113 186 113 32 0 61
5 64 10 12 20 97 11 141 -15z m-559 -10 c55 -16 102 -55 67 -55 -10 0 -38 -9
-62 -20 -44 -20 -49 -40 -10 -40 21 0 20 -1 -6 -29 -26 -27 -66 -47 -66 -33 0
4 14 15 31 25 41 23 31 32 -18 16 -41 -13 -187 -19 -199 -7 -10 11 40 82 78
111 31 24 83 44 119 46 8 1 38 -6 66 -14z m-2980 -31 c-3 -3 -12 -4 -19 -1 -8
3 -5 6 6 6 11 1 17 -2 13 -5z m616 -69 c20 -14 37 -30 37 -34 0 -5 -19 -21
-42 -35 -55 -33 -114 -89 -123 -115 -6 -20 -25 -30 -25 -12 0 4 -29 21 -65 37
-60 27 -65 31 -59 54 25 106 185 167 277 105z m422 1 c78 -36 153 -126 169
-202 7 -30 6 -32 -31 -37 -63 -10 -183 23 -183 49 0 13 -59 74 -116 121 -27
21 -41 28 -46 20 -12 -18 -9 2 2 23 28 52 124 65 205 26z m3009 -25 c23 -22
26 -22 48 -7 47 33 154 15 208 -36 14 -12 47 -41 74 -62 42 -34 86 -89 86
-107 0 -11 -54 3 -72 18 -14 13 -22 11 -70 -13 -75 -39 -151 -40 -183 -2 -12
15 -25 33 -28 40 -4 9 -9 7 -21 -9 -32 -44 -199 -70 -242 -38 -10 8 -32 15
-48 15 -21 0 -27 4 -22 15 8 21 3 19 -28 -10 -25 -23 -35 -25 -113 -24 -91 2
-101 7 -89 54 9 37 75 105 121 126 55 25 110 25 128 -1 14 -21 15 -21 21 5 11
44 61 67 138 63 54 -3 72 -8 92 -27z m-4771 -138 c48 -48 75 -109 62 -142 -6
-14 -8 -13 -15 4 -9 23 -50 63 -50 49 0 -6 6 -16 13 -24 6 -8 2 -6 -10 4 -13
11 -23 15 -23 10 -1 -27 -39 58 -44 99 -9 62 5 62 67 0z m3355 -24 c92 -24
113 -40 90 -66 -35 -39 -86 -164 -98 -242 -12 -78 -13 -79 -36 -69 -17 8 -27
8 -39 -2 -23 -19 -18 -33 10 -26 14 4 25 3 26 -1 5 -52 3 -62 -13 -66 -32 -9
-22 -37 13 -37 27 0 30 -3 23 -22 -9 -30 -24 -39 -52 -33 -39 9 -181 11 -175
2 3 -4 -12 -1 -34 8 -37 15 -108 82 -147 140 -15 21 -21 24 -28 14 -6 -9 -8
14 -5 67 4 61 11 93 32 133 65 130 163 192 348 220 4 0 42 -8 85 -20z m575 6
c133 -28 250 -122 281 -225 22 -75 21 -162 -4 -210 -23 -45 -40 -59 -40 -33 0
14 -4 12 -17 -9 -19 -31 -46 -46 -36 -22 5 12 -1 15 -28 12 -28 -2 -34 -7 -33
-25 1 -35 -64 -61 -170 -69 -53 -4 -87 -3 -84 2 4 5 -10 9 -30 10 -99 2 -143
20 -200 83 -54 58 -72 103 -74 178 -1 62 2 74 35 129 73 123 162 176 322 193
6 0 41 -6 78 -14z m-2943 -12 c38 -26 49 -45 50 -84 l0 -36 -60 -12 c-62 -12
-84 -8 -109 23 -8 9 -17 13 -22 10 -18 -11 -8 44 12 70 37 47 87 58 129 29z
m418 -38 c12 -15 22 -38 21 -53 0 -24 -1 -25 -9 -7 -7 17 -9 17 -9 3 -2 -29
-42 -58 -82 -58 -28 0 -40 6 -54 26 -10 15 -22 23 -31 20 -20 -8 -18 33 2 63
38 54 117 57 162 6z m1108 -89 c139 -64 223 -180 232 -320 2 -40 1 -76 -4 -78
-5 -3 -31 -2 -58 1 -47 6 -50 8 -100 81 -28 41 -71 88 -94 105 -40 27 -51 30
-120 30 -100 0 -135 -21 -209 -127 -59 -84 -84 -101 -142 -96 l-36 3 0 75 c1
59 7 87 27 132 47 102 143 185 247 215 71 20 188 10 257 -21z m-1970 -67 c3
-6 -5 -3 -20 6 -14 10 -26 19 -26 22 0 7 39 -17 46 -28z m3994 6 c59 -44 66
-76 23 -117 -47 -44 -75 -45 -121 -4 -22 20 -45 36 -52 36 -18 0 -3 50 22 77
19 20 38 28 79 32 8 0 30 -10 49 -24z m298 -11 c29 -29 33 -37 21 -45 -8 -5
-11 -9 -7 -9 16 0 -16 -60 -35 -66 -12 -4 -25 -11 -28 -16 -10 -16 -75 20 -88
48 -6 14 -16 22 -21 19 -15 -9 -12 37 4 57 17 24 66 48 95 48 13 0 38 -15 59
-36z m293 -3 c21 -23 26 -35 20 -58 -12 -55 -63 -100 -100 -88 -31 10 -91 72
-91 95 0 34 19 60 53 76 43 19 87 10 118 -25z m-5182 -19 c29 -17 59 -32 67
-32 7 0 37 15 66 33 48 29 61 32 128 32 90 -1 138 -22 209 -93 45 -46 101
-144 101 -178 0 -16 -1 -16 -20 1 -19 17 -20 17 -37 -14 -20 -35 -38 -41 -30
-11 4 14 -9 6 -39 -25 -48 -48 -129 -95 -164 -95 -21 0 -99 38 -111 53 -3 4
-32 -2 -64 -13 -63 -22 -117 -25 -178 -11 -32 8 -42 6 -58 -10 -17 -17 -21
-17 -61 -3 -24 8 -60 32 -81 52 -24 23 -35 30 -31 18 5 -13 4 -17 -4 -12 -7 4
-12 16 -12 27 0 11 -4 18 -9 15 -5 -3 -11 1 -15 9 -7 19 -33 19 -70 0 l-29
-15 5 43 c12 104 113 225 216 258 15 4 59 7 98 6 61 -2 79 -7 123 -35z m1734
-94 c61 -27 130 -102 147 -163 7 -25 11 -48 8 -50 -3 -3 -17 6 -32 20 -18 17
-35 24 -46 20 -12 -4 -23 1 -30 12 -11 16 -11 17 -6 1 4 -13 0 -18 -14 -18
-28 0 -33 -17 -8 -23 12 -4 19 -9 16 -13 -9 -9 -87 38 -117 70 -14 14 -29 26
-34 26 -16 0 -107 45 -107 52 0 5 -8 8 -17 8 -10 0 -26 7 -36 15 -18 13 -17
14 8 31 70 46 176 51 268 12z m-577 6 c69 -29 70 -34 7 -67 -32 -16 -94 -53
-138 -83 -109 -72 -168 -91 -257 -82 -21 2 -21 2 -8 47 13 46 55 105 99 138
77 59 216 81 297 47z m3562 -132 c27 -17 29 -61 5 -102 -29 -49 -103 -49 -131
1 -15 24 -17 26 -30 11 -11 -15 -12 -12 -6 18 3 19 18 47 31 62 38 40 80 43
131 10z m274 -5 c38 -31 43 -66 14 -98 -50 -57 -78 -57 -138 -1 -34 31 -36 62
-5 89 43 39 90 43 129 10z m277 -8 c40 -39 41 -82 5 -115 -27 -26 -60 -30 -85
-11 -67 52 -80 67 -74 88 12 36 55 69 91 69 23 0 41 -9 63 -31z m-2800 7 c25
-13 46 -45 68 -103 4 -13 48 -68 97 -123 l89 -100 148 0 c171 0 160 9 131
-105 l-18 -70 -160 -7 c-87 -3 -217 -10 -288 -15 -159 -12 -315 -6 -379 12
-45 13 -188 13 -273 0 l-31 -5 -25 95 -25 95 152 0 152 0 96 99 c72 74 98 109
107 139 22 84 92 122 159 88z m-1073 -60 c32 -32 46 -69 25 -63 -5 1 -16 -6
-24 -17 -9 -12 -30 -20 -63 -23 -43 -4 -52 -2 -73 20 -30 33 -22 70 22 97 46
29 74 25 113 -14z m1984 24 c0 -5 -5 -10 -11 -10 -5 0 -7 5 -4 10 3 6 8 10 11
10 2 0 4 -4 4 -10z m-3865 -214 c16 -16 53 -40 80 -52 l50 -24 978 0 977 0 10
-26 c22 -56 18 -59 -77 -57 -49 0 -74 -2 -58 -5 55 -12 41 -32 -22 -32 -41 0
-54 3 -43 10 11 7 -6 10 -55 12 l-70 2 75 6 c41 4 -334 7 -835 9 -983 2 -944
0 -1026 56 -67 47 -91 105 -72 174 6 23 6 23 32 -10 14 -19 39 -47 56 -63z
m5901 49 c-2 -19 1 -32 5 -29 17 10 9 -54 -10 -78 -21 -26 -104 -74 -152 -88
-17 -5 -334 -10 -704 -11 -371 -1 -675 -5 -677 -8 -2 -4 -86 -3 -188 1 -102 5
-251 7 -333 6 -162 -3 -158 -5 -141 60 l6 22 992 0 991 0 53 25 c29 13 76 48
105 79 28 29 53 54 54 55 1 1 0 -15 -1 -34z m-1813 -242 c-7 -2 -21 -2 -30 0
-10 3 -4 5 12 5 17 0 24 -2 18 -5z m194 1 c-3 -3 -12 -4 -19 -1 -8 3 -5 6 6 6
11 1 17 -2 13 -5z m231 -1 c-10 -2 -26 -2 -35 0 -10 3 -2 5 17 5 19 0 27 -2
18 -5z m-1348 -213 c0 -5 30 -10 68 -12 65 -3 67 -4 64 -28 -5 -32 -3 -31 -53
-36 -53 -7 -59 -10 -59 -35 0 -16 7 -19 45 -19 44 0 45 -1 39 -27 -10 -42 -12
-43 -55 -43 -32 0 -41 -5 -51 -24 -17 -40 -5 -56 38 -49 37 6 37 6 30 -23 -4
-16 -9 -30 -10 -31 -1 -2 -142 -5 -312 -9 -336 -6 -324 -8 -338 49 -6 26 -5
27 21 21 16 -4 32 -7 37 -8 4 0 10 14 12 32 4 32 4 32 -41 32 -48 0 -65 16
-65 62 0 21 4 23 40 20 30 -3 41 0 46 12 9 23 4 26 -55 33 -28 3 -51 11 -51
17 0 6 -3 21 -6 34 -6 21 -4 22 57 22 35 0 71 5 79 10 20 13 520 13 520 0z
m675 -191 c-4 -5 0 -9 7 -9 7 0 267 -2 578 -4 311 -2 724 -5 918 -5 l352 -1 0
-31 c0 -27 -3 -30 -23 -25 -49 12 -146 16 -152 6 -4 -6 6 -8 27 -4 l33 6 -33
-21 c-18 -12 -36 -19 -40 -17 -4 3 -9 -4 -10 -15 -7 -70 -4 -81 21 -107 23
-22 37 -27 97 -30 58 -4 70 -7 76 -24 3 -11 4 -22 1 -24 -6 -7 -2037 -8 -2043
-2 -10 10 9 39 22 34 8 -3 14 1 14 9 0 8 6 15 14 15 22 0 35 23 29 52 -3 18
-10 25 -19 21 -11 -4 -12 -9 -3 -19 9 -11 8 -14 -5 -14 -42 0 -2 59 42 61 15
1 63 3 106 5 79 3 100 13 89 41 -8 21 -47 33 -103 33 -59 0 -73 16 -37 45 15
11 27 26 27 33 0 7 5 10 10 7 6 -4 8 -11 5 -16z m-1857 1 c-2 -6 16 -19 40
-30 39 -17 42 -18 42 -2 0 15 2 15 10 2 17 -28 -13 -44 -79 -41 -32 1 -61 -2
-65 -7 -3 -5 15 -7 39 -5 28 3 45 0 45 -6 0 -7 -22 -11 -53 -11 -51 0 -100
-20 -85 -35 3 -4 52 -9 107 -12 83 -5 101 -9 102 -22 1 -9 4 -5 8 9 4 14 5 27
2 30 -3 3 -7 21 -9 39 -4 51 6 34 29 -49 16 -59 17 -75 7 -81 -10 -7 -9 -9 4
-9 10 0 19 -11 23 -30 4 -16 11 -32 16 -35 5 -4 9 -9 9 -13 0 -9 -1950 -6
-1996 3 -40 7 -45 25 -8 25 14 0 23 4 20 9 -3 5 15 11 40 14 60 6 94 38 94 87
0 41 -28 74 -72 85 -16 4 -28 11 -28 15 0 4 -16 11 -36 15 -32 6 -35 8 -23 21
12 12 151 14 892 16 482 2 877 6 877 10 0 6 19 13 43 17 4 0 6 -4 5 -9z m1022
-170 c0 -13 -160 -13 -180 0 -10 7 16 10 83 10 58 0 97 -4 97 -10z m-652 -399
c15 -47 15 -64 2 -56 -6 4 -10 3 -9 -2 8 -43 3 -46 -88 -38 -47 4 -445 6 -882
5 -438 -1 -816 -2 -841 -1 -25 0 -80 1 -123 1 -43 1 -76 4 -73 8 2 4 -28 7
-67 6 -74 0 -112 10 -102 27 4 5 2 9 -4 9 -5 0 -11 -6 -14 -12 -5 -17 -37 45
-37 72 l0 20 1113 0 1114 0 11 -39z m3344 33 c11 -10 -8 -57 -27 -68 -10 -6
-28 -21 -39 -34 -18 -20 -25 -22 -49 -13 -36 14 -57 14 -37 0 12 -8 11 -9 -5
-5 -51 13 -158 18 -164 8 -6 -11 -721 -23 -721 -12 0 6 -301 4 -572 -4 -157
-4 -187 -3 -192 9 -3 8 -17 15 -32 15 -23 0 -25 -2 -14 -15 12 -14 -1 -15
-116 -11 -71 3 -164 5 -206 5 l-78 1 5 38 c2 20 7 49 11 65 l6 27 1112 0 c612
0 1115 -3 1118 -6z m-3328 -119 c3 -8 1 -15 -4 -15 -6 0 -10 7 -10 15 0 8 2
15 4 15 2 0 6 -7 10 -15z"/>
<path d="M5721 7114 c0 -11 3 -14 6 -6 3 7 2 16 -1 19 -3 4 -6 -2 -5 -13z"/>
<path d="M5900 4170 c-9 -6 -10 -10 -3 -10 6 0 15 5 18 10 8 12 4 12 -15 0z"/>
<path d="M5825 4080 c3 -5 11 -10 16 -10 6 0 7 5 4 10 -3 6 -11 10 -16 10 -6
0 -7 -4 -4 -10z"/>
<path d="M5268 4486 c-23 -17 -23 -46 0 -46 19 0 46 36 37 50 -8 13 -16 12
-37 -4z m22 -6 c0 -5 -5 -10 -11 -10 -5 0 -7 5 -4 10 3 6 8 10 11 10 2 0 4 -4
4 -10z"/>
<path d="M5480 4476 c0 -17 16 -30 23 -19 3 5 -1 14 -9 21 -12 10 -14 10 -14
-2z"/>
<path d="M3300 4440 c0 -25 23 -35 47 -21 16 9 16 10 -4 11 -32 0 -29 18 5 23
22 3 20 4 -10 6 -32 1 -38 -2 -38 -19z"/>
<path d="M3615 4449 c-4 -6 -5 -12 -2 -15 2 -3 7 2 10 11 7 17 1 20 -8 4z"/>
<path d="M3650 4440 c0 -19 3 -21 12 -12 9 9 9 15 0 24 -9 9 -12 7 -12 -12z"/>
<path d="M3428 4306 c-32 -27 -34 -38 -12 -57 14 -11 20 -8 45 21 46 52 19 82
-33 36z"/>
<path d="M3006 3965 c10 -8 23 -15 28 -15 6 0 1 7 -10 15 -10 8 -23 15 -28 15
-6 0 -1 -7 10 -15z"/>
<path d="M4557 4342 c-3 -4 1 -13 9 -19 7 -7 15 -9 17 -5 3 4 -1 13 -9 19 -7
7 -15 9 -17 5z"/>
<path d="M4525 4320 c-4 -6 3 -10 14 -10 25 0 27 6 6 13 -8 4 -17 2 -20 -3z"/>
<path d="M6076 3785 c4 -8 1 -16 -5 -16 -6 -1 -16 -2 -23 -3 -18 -2 -22 -26
-4 -26 16 0 56 37 56 52 0 4 -7 8 -15 8 -9 0 -12 -6 -9 -15z"/>
<path d="M5910 3630 c0 -5 4 -10 9 -10 6 0 13 5 16 10 3 6 -1 10 -9 10 -9 0
-16 -4 -16 -10z"/>
<path d="M5802 3558 c-21 -21 -15 -40 11 -33 30 10 41 21 33 34 -9 14 -29 14
-44 -1z"/>
<path d="M5846 3454 c-25 -24 -20 -44 12 -44 19 0 30 7 38 25 7 13 9 26 6 30
-11 10 -41 5 -56 -11z"/>
<path d="M6497 3656 c-25 -23 -26 -36 -2 -36 12 0 39 49 32 56 -2 2 -16 -7
-30 -20z"/>
<path d="M6738 3658 c-6 -15 1 -38 10 -38 4 0 7 11 7 25 0 26 -10 33 -17 13z"/>
<path d="M6387 3562 c-26 -28 -22 -42 8 -29 14 7 25 20 25 30 0 22 -13 22 -33
-1z"/>
<path d="M6617 3569 c-20 -12 -23 -39 -3 -39 7 0 16 10 19 22 8 27 6 29 -16
17z"/>
<path d="M6647 3549 c-3 -13 -1 -19 6 -16 15 5 22 37 9 37 -5 0 -12 -9 -15
-21z"/>
<path d="M6842 3558 c-21 -21 -13 -38 18 -38 23 0 30 5 30 19 0 10 -7 22 -16
25 -20 8 -18 8 -32 -6z"/>
<path d="M6432 3463 c-30 -6 -39 -30 -19 -50 14 -15 18 -15 42 1 14 10 25 24
23 33 -3 19 -13 22 -46 16z"/>
<path d="M6619 3451 c-22 -19 -23 -20 -4 -21 30 0 52 17 39 30 -8 8 -18 5 -35
-9z"/>
<path d="M3781 3854 c0 -11 3 -14 6 -6 3 7 2 16 -1 19 -3 4 -6 -2 -5 -13z"/>
<path d="M2513 3483 c-18 -7 -16 -42 2 -49 16 -7 45 12 45 29 0 5 -8 3 -18 -6
-23 -21 -32 -21 -32 -2 0 9 10 20 23 25 12 5 15 9 7 9 -8 -1 -21 -3 -27 -6z"/>
<path d="M2742 3474 c-12 -8 -22 -22 -22 -30 0 -23 54 -14 58 10 6 28 -11 38
-36 20z"/>
<path d="M2996 3471 c-20 -22 -14 -41 13 -41 24 0 45 25 37 45 -8 21 -29 19
-50 -4z"/>
<path d="M4996 3231 c-101 -102 -119 -124 -119 -151 0 -55 6 -56 263 -50 l235
5 3 28 c4 30 -9 49 -96 144 -31 33 -73 80 -93 102 -20 23 -45 41 -55 41 -11 0
-70 -51 -138 -119z"/>
<path d="M4087 3373 c-10 -9 -9 -23 1 -23 5 0 9 7 9 15 0 17 -1 18 -10 8z"/>
<path d="M4168 3053 c6 -2 18 -2 25 0 6 3 1 5 -13 5 -14 0 -19 -2 -12 -5z"/>
<path d="M5050 2811 c0 -7 32 -11 87 -11 47 0 84 2 82 4 -2 2 -41 7 -86 10
-57 5 -83 4 -83 -3z"/>
<path d="M6768 2563 c12 -2 30 -2 40 0 9 3 -1 5 -23 4 -22 0 -30 -2 -17 -4z"/>
<path d="M6725 2528 c-27 -5 -102 -11 -165 -14 -193 -8 -175 -11 68 -13 226
-1 232 0 232 19 0 22 -15 27 -23 8 -4 -9 -8 -10 -14 -3 -10 13 -34 14 -98 3z"/>
<path d="M6951 2527 c-14 -6 -28 -25 -32 -41 -7 -24 -3 -33 21 -57 33 -34 62
-37 90 -9 38 38 12 120 -37 120 -10 0 -29 -6 -42 -13z"/>
<path d="M5920 2365 c0 -8 2 -15 4 -15 2 0 6 7 10 15 3 8 1 15 -4 15 -6 0 -10
-7 -10 -15z"/>
<path d="M2560 2571 c0 -10 19 -25 25 -20 1 2 -3 10 -11 17 -8 7 -14 8 -14 3z"/>
<path d="M2602 2520 c7 -10 14 -18 15 -16 6 6 -9 36 -18 36 -5 0 -4 -9 3 -20z"/>
<path d="M3237 2522 c-20 -22 -22 -83 -5 -100 7 -7 31 -12 54 -12 33 0 47 5
58 22 17 24 12 63 -12 91 -20 23 -74 22 -95 -1z"/>
<path d="M3432 2524 c-38 -18 20 -24 206 -22 175 1 192 2 112 8 -186 15 -305
20 -318 14z"/>
<path d="M4325 2450 c-3 -5 -1 -10 4 -10 6 0 11 5 11 10 0 6 -2 10 -4 10 -3 0
-8 -4 -11 -10z"/>
<path d="M4350 2359 c0 -5 5 -7 10 -4 6 3 10 8 10 11 0 2 -4 4 -10 4 -5 0 -10
-5 -10 -11z"/>
<path d="M2557 2017 c49 -6 148 -6 245 -1 l163 9 -245 0 c-201 1 -230 -1 -163
-8z"/>
<path d="M3298 2023 c12 -2 32 -2 45 0 12 2 2 4 -23 4 -25 0 -35 -2 -22 -4z"/>
<path d="M3638 2023 c67 -2 177 -2 245 0 67 1 12 3 -123 3 -135 0 -190 -2
-122 -3z"/>
<path d="M4304 2019 c37 -4 96 -4 130 0 51 7 40 8 -69 8 -115 0 -122 -1 -61
-8z"/>
<path d="M6248 2023 c6 -2 18 -2 25 0 6 3 1 5 -13 5 -14 0 -19 -2 -12 -5z"/>
<path d="M6692 2023 c48 -2 129 -2 180 0 51 1 12 3 -87 3 -99 0 -141 -2 -93
-3z"/>
<path d="M7338 2023 c237 -2 342 -7 342 -14 0 -7 16 -9 48 -4 27 3 60 2 76 -5
30 -11 62 2 50 21 -3 5 -192 8 -432 7 l-427 -3 343 -2z"/>
<path d="M5686 2003 c-6 -14 -5 -15 5 -6 7 7 10 15 7 18 -3 3 -9 -2 -12 -12z"/>
<path d="M5888 2013 c12 -2 32 -2 45 0 12 2 2 4 -23 4 -25 0 -35 -2 -22 -4z"/>
<path d="M5715 2000 c-3 -5 -1 -10 4 -10 6 0 11 5 11 10 0 6 -2 10 -4 10 -3 0
-8 -4 -11 -10z"/>
<path d="M5933 1993 c9 -2 23 -2 30 0 6 3 -1 5 -18 5 -16 0 -22 -2 -12 -5z"/>
<path d="M7338 1993 c7 -3 16 -2 19 1 4 3 -2 6 -13 5 -11 0 -14 -3 -6 -6z"/>
</g>
</svg>
